{
    "asset" : {
        "generator" : "Khronos glTF Blender I/O v1.6.16",
        "version" : "2.0"
    },
    "scene" : 0,
    "scenes" : [
        {
            "name" : "Scene",
            "nodes" : [
                0,
                1,
                2,
                3,
                4
            ]
        }
    ],
    "nodes" : [
        {
            "name" : "Light",
            "rotation" : [
                0.16907575726509094,
                0.7558803558349609,
                -0.27217137813568115,
                0.570947527885437
            ],
            "translation" : [
                4.076245307922363,
                5.903861999511719,
                -1.0054539442062378
            ]
        },
        {
            "name" : "Camera",
            "rotation" : [
                0.483536034822464,
                0.33687159419059753,
                -0.20870360732078552,
                0.7804827094078064
            ],
            "translation" : [
                7.358891487121582,
                6.497214317321777,
                6.925790786743164
            ]
        },
        {
            "mesh" : 0,
            "name" : "Stud",
            "rotation" : [
                0.7071068286895752,
                0,
                0,
                0.7071067094802856
            ],
            "translation" : [
                0,
                63.91285705566406,
                0
            ]
        },
        {
            "mesh" : 1,
            "name" : "Retainer",
            "rotation" : [
                0.7071068286895752,
                0,
                0,
                0.7071067094802856
            ],
            "translation" : [
                0,
                53.0298957824707,
                0
            ]
        },
        {
            "mesh" : 2,
            "name" : "Hot Press",
            "rotation" : [
                0.7071068286895752,
                0,
                0,
                0.7071067094802856
            ],
            "translation" : [
                0,
                50.740814208984375,
                0
            ]
        }
    ],
    "materials" : [
        {
            "doubleSided" : true,
            "name" : "Nylon_6-6_(White)",
            "pbrMetallicRoughness" : {
                "baseColorFactor" : [
                    0.9725490212440491,
                    0.9686269760131836,
                    0.9294120073318481,
                    1
                ],
                "metallicFactor" : 0
            }
        },
        {
            "doubleSided" : true,
            "name" : "Nylon_6-6_(White).001",
            "pbrMetallicRoughness" : {
                "baseColorFactor" : [
                    0.9725490212440491,
                    0.9686269760131836,
                    0.9294120073318481,
                    1
                ],
                "metallicFactor" : 0
            }
        },
        {
            "doubleSided" : true,
            "name" : "Aluminum_-_Satin",
            "pbrMetallicRoughness" : {
                "baseColorFactor" : [
                    0.5627709031105042,
                    0.5627709031105042,
                    0.5650359988212585,
                    1
                ],
                "metallicFactor" : 0.5062500238418579
            }
        }
    ],
    "meshes" : [
        {
            "name" : "Stud",
            "primitives" : [
                {
                    "attributes" : {
                        "POSITION" : 0,
                        "NORMAL" : 1,
                        "TEXCOORD_0" : 2
                    },
                    "indices" : 3,
                    "material" : 0
                }
            ]
        },
        {
            "name" : "Retainer",
            "primitives" : [
                {
                    "attributes" : {
                        "POSITION" : 4,
                        "NORMAL" : 5,
                        "TEXCOORD_0" : 6
                    },
                    "indices" : 7,
                    "material" : 1
                }
            ]
        },
        {
            "name" : "Hot Press",
            "primitives" : [
                {
                    "attributes" : {
                        "POSITION" : 8,
                        "NORMAL" : 9,
                        "TEXCOORD_0" : 10
                    },
                    "indices" : 11,
                    "material" : 2
                }
            ]
        }
    ],
    "accessors" : [
        {
            "bufferView" : 0,
            "componentType" : 5126,
            "count" : 30880,
            "max" : [
                8.999714851379395,
                8.999553680419922,
                6
            ],
            "min" : [
                -9,
                -8.999173164367676,
                -6
            ],
            "type" : "VEC3"
        },
        {
            "bufferView" : 1,
            "componentType" : 5126,
            "count" : 30880,
            "type" : "VEC3"
        },
        {
            "bufferView" : 2,
            "componentType" : 5126,
            "count" : 30880,
            "type" : "VEC2"
        },
        {
            "bufferView" : 3,
            "componentType" : 5123,
            "count" : 175746,
            "type" : "SCALAR"
        },
        {
            "bufferView" : 4,
            "componentType" : 5126,
            "count" : 14388,
            "max" : [
                5,
                4.999287128448486,
                3.5
            ],
            "min" : [
                -5,
                -4.999287128448486,
                1.5
            ],
            "type" : "VEC3"
        },
        {
            "bufferView" : 5,
            "componentType" : 5126,
            "count" : 14388,
            "type" : "VEC3"
        },
        {
            "bufferView" : 6,
            "componentType" : 5126,
            "count" : 14388,
            "type" : "VEC2"
        },
        {
            "bufferView" : 7,
            "componentType" : 5123,
            "count" : 74460,
            "type" : "SCALAR"
        },
        {
            "bufferView" : 8,
            "componentType" : 5126,
            "count" : 7946,
            "max" : [
                4,
                3.998673915863037,
                40
            ],
            "min" : [
                -4,
                -3.998673915863037,
                16
            ],
            "type" : "VEC3"
        },
        {
            "bufferView" : 9,
            "componentType" : 5126,
            "count" : 7946,
            "type" : "VEC3"
        },
        {
            "bufferView" : 10,
            "componentType" : 5126,
            "count" : 7946,
            "type" : "VEC2"
        },
        {
            "bufferView" : 11,
            "componentType" : 5123,
            "count" : 41256,
            "type" : "SCALAR"
        }
    ],
    "bufferViews" : [
        {
            "buffer" : 0,
            "byteLength" : 370560,
            "byteOffset" : 0
        },
        {
            "buffer" : 0,
            "byteLength" : 370560,
            "byteOffset" : 370560
        },
        {
            "buffer" : 0,
            "byteLength" : 247040,
            "byteOffset" : 741120
        },
        {
            "buffer" : 0,
            "byteLength" : 351492,
            "byteOffset" : 988160
        },
        {
            "buffer" : 0,
            "byteLength" : 172656,
            "byteOffset" : 1339652
        },
        {
            "buffer" : 0,
            "byteLength" : 172656,
            "byteOffset" : 1512308
        },
        {
            "buffer" : 0,
            "byteLength" : 115104,
            "byteOffset" : 1684964
        },
        {
            "buffer" : 0,
            "byteLength" : 148920,
            "byteOffset" : 1800068
        },
        {
            "buffer" : 0,
            "byteLength" : 95352,
            "byteOffset" : 1948988
        },
        {
            "buffer" : 0,
            "byteLength" : 95352,
            "byteOffset" : 2044340
        },
        {
            "buffer" : 0,
            "byteLength" : 63568,
            "byteOffset" : 2139692
        },
        {
            "buffer" : 0,
            "byteLength" : 82512,
            "byteOffset" : 2203260
        }
    ],
    "buffers" : [
        {
            "byteLength" : 2285772,
            "uri" : "data:application/octet-stream;base64,"
        }
    ]
}
