<svg width="67" height="68" viewBox="0 0 67 68" fill="none" xmlns="http://www.w3.org/2000/svg">
<path d="M33.3759 67.2321C54.1119 67.2321 66.5919 52.3841 66.5919 34.016C66.5919 15.648 54.1119 0.800049 33.3759 0.800049C12.6399 0.800049 0.159912 15.648 0.159912 34.016C0.159912 52.3841 12.6399 67.2321 33.3759 67.2321ZM33.3759 59.808C17.2479 59.808 7.51991 47.9681 7.51991 34.016C7.51991 20.064 17.2479 8.22405 33.3759 8.22405C49.5039 8.22405 59.2319 20.064 59.2319 34.016C59.2319 47.9681 49.5039 59.808 33.3759 59.808ZM15.2639 33.952C15.2639 45.408 23.1999 50.912 33.5039 50.912C43.4239 50.912 51.5519 45.472 51.8719 36.384H39.5839C39.3919 37.984 37.4079 40.16 33.5039 40.16C30.4319 40.16 27.4879 38.304 27.4879 33.952C27.4879 29.664 30.4319 27.872 33.5039 27.872C37.4079 27.872 39.3919 30.048 39.5839 31.648H51.8719C51.5519 22.56 43.4239 17.12 33.5039 17.12C23.1999 17.12 15.2639 22.56 15.2639 33.952Z" fill="black"/>
</svg>
