<svg width="2471" height="1390" viewBox="0 0 2471 1390" fill="none" xmlns="http://www.w3.org/2000/svg">
<g clip-path="url(#clip0_173_1733)">
<rect width="2471" height="1390" fill="#3C52E0"/>
<path d="M1965.8 746.743V720.921H1759.23V746.743H1965.8Z" fill="#4BA1EE"/>
<path d="M2103.52 587.722L2025.79 515.575L1973.18 725.74H2017.94L2103.52 822.98V587.722Z" fill="#4BA1EE"/>
<path d="M1621.51 587.72L1698.51 515.574L1750.62 725.739H1706.29L1621.51 822.979V587.72Z" fill="#4BA1EE"/>
<path d="M1861.6 183.577C1667.68 366.98 1667.25 586.954 1750.34 725.839H1973.78C2056.87 586.954 2055.53 366.98 1861.6 183.577Z" fill="#093D6B"/>
<path d="M1767.83 321.295H1954.74" stroke="white" stroke-width="3" stroke-linecap="round"/>
<path d="M1974.14 485.449C1974.14 545.392 1925.27 594 1864.98 594C1804.68 594 1755.81 545.392 1755.81 485.449C1755.81 425.506 1804.68 376.898 1864.98 376.898C1925.27 376.898 1974.14 425.506 1974.14 485.449Z" fill="white" stroke="white" stroke-width="3"/>
<path d="M1810.7 402.96C1781.67 426.852 1804.65 446.984 1819.77 454.063L1799.68 468.664C1763.91 436.808 1792.12 411.588 1810.7 402.96Z" fill="#4BA1EE"/>
<path d="M1919.41 402.96C1948.44 426.852 1925.45 446.984 1910.33 454.063L1930.42 468.664C1966.19 436.808 1937.98 411.588 1919.41 402.96Z" fill="#4BA1EE"/>
<path d="M1809.12 465.774C1798.07 466.661 1775.29 463.796 1769.46 461.667C1762.17 459.006 1756.11 507.689 1809.12 465.774Z" fill="#093D6B"/>
<path d="M1920.99 465.774C1932.03 466.661 1954.82 463.795 1960.65 461.666C1967.94 459.005 1973.99 507.688 1920.99 465.774Z" fill="#093D6B"/>
<circle cx="1865.94" cy="497.076" r="71.031" fill="#093D6B"/>
<ellipse cx="1850.87" cy="469.76" rx="4.80052" ry="4.32047" transform="rotate(2.3181 1850.87 469.76)" fill="black"/>
<ellipse cx="1880.61" cy="470.964" rx="4.80052" ry="4.32047" transform="rotate(2.3181 1880.61 470.964)" fill="black"/>
<path fill-rule="evenodd" clip-rule="evenodd" d="M1845.9 460.613C1844.09 461.787 1842.8 463.708 1842.22 465.081L1835.81 462.372C1836.79 460.057 1838.86 456.888 1842.1 454.779C1845.54 452.545 1850.12 451.629 1855.39 453.883L1852.65 460.282C1849.66 459 1847.51 459.562 1845.9 460.613Z" fill="black"/>
<path fill-rule="evenodd" clip-rule="evenodd" d="M1885.76 462.225C1887.46 463.542 1888.6 465.562 1889.07 466.977L1895.68 464.795C1894.89 462.408 1893.07 459.082 1890.01 456.718C1886.77 454.214 1882.28 452.93 1876.84 454.751L1879.05 461.35C1882.14 460.315 1884.23 461.048 1885.76 462.225Z" fill="black"/>
<path d="M1924.54 525.946C1924.54 547.776 1897.91 568.107 1865.05 568.107C1837.53 568.107 1805.56 547.776 1805.56 525.946C1805.56 504.117 1832.2 486.421 1865.05 486.421C1897.91 486.421 1924.54 504.117 1924.54 525.946Z" fill="#00549E"/>
<path d="M1859.27 506.811C1860.25 506.811 1861.04 505.226 1861.04 503.272C1861.04 501.317 1860.25 499.732 1859.27 499.732C1858.29 499.732 1857.5 501.317 1857.5 503.272C1857.5 505.226 1858.29 506.811 1859.27 506.811Z" fill="black"/>
<path d="M1859.27 509.023C1857.06 509.023 1855.29 506.811 1855.29 503.272C1855.29 499.732 1857.06 497.52 1859.27 497.52C1861.48 497.52 1863.25 499.732 1863.25 503.272C1863.25 506.811 1861.48 509.023 1859.27 509.023Z" fill="black"/>
<path d="M1873.43 506.811C1874.41 506.811 1875.2 505.227 1875.2 503.272C1875.2 501.317 1874.41 499.732 1873.43 499.732C1872.45 499.732 1871.66 501.317 1871.66 503.272C1871.66 505.227 1872.45 506.811 1873.43 506.811Z" fill="black"/>
<path d="M1873.43 509.023C1871.22 509.023 1869.45 506.811 1869.45 503.272C1869.45 499.732 1871.22 497.52 1873.43 497.52C1875.64 497.52 1877.41 499.732 1877.41 503.272C1877.41 506.811 1875.64 509.023 1873.43 509.023Z" fill="black"/>
<rect x="1759.38" y="781.084" width="205.665" height="1528.96" fill="white"/>
<rect x="1759.38" y="781.084" width="205.665" height="1528.96" fill="url(#paint0_linear_173_1733)" fill-opacity="0.6"/>
<path d="M445.488 396.277H467.888V357.477C467.888 353.477 467.488 343.277 467.288 336.677H467.488C471.688 349.477 484.488 358.277 504.088 358.277C532.488 358.277 550.488 337.477 550.488 305.477C550.488 275.677 532.688 256.277 504.488 256.277C484.888 256.277 471.688 265.877 467.688 280.877H467.488L467.888 257.877H445.488V396.277ZM499.688 339.877C480.488 339.877 467.888 329.077 467.888 312.277V307.077C468.288 287.277 480.688 274.677 499.288 274.677C517.088 274.677 528.088 287.077 528.088 306.077C528.088 326.677 516.888 339.877 499.688 339.877ZM573.888 356.677H596.288V313.477C596.288 289.877 606.888 275.477 623.888 275.477C637.088 275.477 643.488 283.277 643.488 299.877C643.488 304.477 643.088 309.477 642.688 313.277H663.088C663.488 309.077 664.088 301.077 664.088 294.877C664.088 270.277 652.288 256.277 630.888 256.277C610.488 256.277 600.288 268.477 595.688 286.277H595.488L596.288 257.877H573.888V356.677ZM735.863 358.277C767.463 358.277 787.663 338.877 787.663 307.477C787.663 275.877 767.463 256.277 735.863 256.277C704.463 256.277 684.263 275.877 684.263 307.477C684.263 338.877 704.463 358.277 735.863 358.277ZM735.863 339.877C717.663 339.877 706.663 327.477 706.663 307.477C706.663 287.277 717.663 274.677 735.863 274.677C754.063 274.677 765.263 287.277 765.263 307.477C765.263 327.477 754.063 339.877 735.863 339.877ZM811.394 396.277H833.794V357.477C833.794 353.477 833.394 343.277 833.194 336.677H833.394C837.594 349.477 850.394 358.277 869.994 358.277C898.394 358.277 916.394 337.477 916.394 305.477C916.394 275.677 898.594 256.277 870.394 256.277C850.794 256.277 837.594 265.877 833.594 280.877H833.394L833.794 257.877H811.394V396.277ZM865.594 339.877C846.394 339.877 833.794 329.077 833.794 312.277V307.077C834.194 287.277 846.594 274.677 865.194 274.677C882.994 274.677 893.994 287.077 893.994 306.077C893.994 326.677 882.794 339.877 865.594 339.877ZM940.394 356.677H962.794V309.877C962.794 287.677 975.194 275.477 994.994 275.477C1012.79 275.477 1021.59 284.277 1021.59 299.877V356.677H1043.99V294.877C1043.99 270.477 1028.59 256.277 1003.59 256.277C980.394 256.277 967.594 266.477 962.394 284.477H962.194C962.394 279.077 962.794 267.677 962.794 262.877V218.077H940.394V356.677ZM1162.98 303.677C1162.98 272.877 1145.18 256.277 1117.18 256.277C1085.98 256.277 1066.38 276.077 1066.38 308.077C1066.38 339.077 1085.98 358.277 1117.18 358.277C1144.18 358.277 1162.18 344.877 1162.98 322.877H1142.78C1141.78 334.477 1131.98 340.877 1117.58 340.877C1100.78 340.877 1090.18 330.677 1088.98 311.677H1162.98V303.677ZM1142.78 298.077H1089.58C1092.18 281.677 1101.98 273.677 1117.38 273.677C1133.58 273.677 1142.78 281.877 1142.78 296.677V298.077ZM1230.47 357.877C1238.67 357.877 1245.47 356.477 1248.47 355.477V337.677C1245.67 338.477 1239.27 339.477 1233.67 339.477C1220.07 339.477 1215.27 333.077 1215.27 320.277V276.077H1249.27V257.877H1215.27V235.477H1196.67L1195.67 250.277C1195.07 255.877 1193.67 257.877 1189.87 257.877H1177.27V276.077H1192.87V321.477C1192.87 343.277 1203.47 357.877 1230.47 357.877Z" fill="white"/>
<path fill-rule="evenodd" clip-rule="evenodd" d="M196.91 305.49C196.91 331.871 210.413 355.439 231.047 369.294L211.471 387.651C211.471 394.061 238.624 401.896 271.537 401.896C305.272 401.896 331.602 394.061 331.602 387.651L313.643 370.81C335.773 357.031 350.447 332.28 350.447 304.779C350.447 262.843 315.617 228.015 273.678 228.015C231.74 228.015 196.91 263.554 196.91 305.49ZM327.178 272.431L295.923 306.663C294.029 308.738 291.348 309.92 288.538 309.92H265.288C262.866 309.92 260.526 310.799 258.703 312.394L225.385 341.548C224.962 341.918 224.508 342.23 224.033 342.486C235.539 357.508 253.627 367.327 273.678 367.327C308.509 367.327 336.231 338.896 336.231 304.779C336.231 293.008 332.931 281.914 327.178 272.431ZM250.339 256.884C252.39 255.859 253.221 253.366 252.196 251.315C251.17 249.265 248.677 248.434 246.627 249.459C234.392 255.576 224.472 265.497 218.355 277.731C217.329 279.782 218.16 282.275 220.211 283.3C222.261 284.325 224.755 283.494 225.78 281.444C231.094 270.816 239.711 262.198 250.339 256.884Z" fill="white"/>
</g>
<defs>
<linearGradient id="paint0_linear_173_1733" x1="1862.21" y1="1927.8" x2="1862.21" y2="988.586" gradientUnits="userSpaceOnUse">
<stop stop-color="#4BA1EE"/>
<stop offset="1" stop-color="#4BA1EE" stop-opacity="0"/>
</linearGradient>
<clipPath id="clip0_173_1733">
<rect width="2471" height="1390" fill="white"/>
</clipPath>
</defs>
</svg>
