<svg width="1920" height="1080" viewBox="0 0 1920 1080" fill="none" xmlns="http://www.w3.org/2000/svg">
<rect width="1920" height="1080" fill="#002646"/>
<path fill-rule="evenodd" clip-rule="evenodd" d="M724 521.136C724 599.331 764.022 669.188 825.184 710.252L767.16 764.664C767.16 783.664 847.642 806.886 945.195 806.886C1045.19 806.886 1123.23 783.664 1123.23 764.664L1070 714.748C1135.59 673.904 1179.09 600.544 1179.09 519.03C1179.09 394.731 1075.85 291.5 951.544 291.5C827.237 291.5 724 396.838 724 521.136ZM1110.12 423.151L1011.64 531.01C1009.74 533.085 1007.06 534.267 1004.25 534.267H919.295C916.873 534.267 914.533 535.146 912.71 536.741L804.726 631.227C838.848 675.508 892.304 704.424 951.544 704.424C1054.78 704.424 1136.95 620.154 1136.95 519.03C1136.95 484.141 1127.17 451.258 1110.12 423.151ZM882.366 377.069C888.444 374.03 890.907 366.64 887.869 360.562C884.83 354.485 877.44 352.021 871.362 355.06C835.099 373.192 805.694 402.596 787.563 438.86C784.524 444.937 786.987 452.327 793.065 455.366C799.142 458.405 806.533 455.942 809.571 449.864C825.322 418.363 850.865 392.82 882.366 377.069Z" fill="#4BA1EE"/>
<path d="M1220.5 273H1300V775.5H1220.5" stroke="white" stroke-width="3" stroke-dasharray="2 2"/>
<path d="M1351.62 535.86C1350.26 535.86 1349.03 535.63 1347.93 535.17C1346.85 534.69 1345.92 534 1345.14 533.1C1344.38 532.18 1343.79 531.05 1343.37 529.71C1342.95 528.35 1342.74 526.79 1342.74 525.03C1342.74 523.27 1342.95 521.72 1343.37 520.38C1343.79 519.04 1344.38 517.91 1345.14 516.99C1345.92 516.07 1346.85 515.38 1347.93 514.92C1349.03 514.44 1350.26 514.2 1351.62 514.2C1352.96 514.2 1354.18 514.44 1355.28 514.92C1356.38 515.38 1357.31 516.07 1358.07 516.99C1358.85 517.91 1359.45 519.04 1359.87 520.38C1360.29 521.72 1360.5 523.27 1360.5 525.03C1360.5 526.79 1360.29 528.35 1359.87 529.71C1359.45 531.05 1358.85 532.18 1358.07 533.1C1357.31 534 1356.38 534.69 1355.28 535.17C1354.18 535.63 1352.96 535.86 1351.62 535.86ZM1351.62 533.61C1352.52 533.61 1353.35 533.45 1354.11 533.13C1354.87 532.81 1355.52 532.35 1356.06 531.75C1356.62 531.15 1357.05 530.43 1357.35 529.59C1357.65 528.75 1357.8 527.81 1357.8 526.77V523.29C1357.8 522.25 1357.65 521.31 1357.35 520.47C1357.05 519.63 1356.62 518.91 1356.06 518.31C1355.52 517.71 1354.87 517.25 1354.11 516.93C1353.35 516.61 1352.52 516.45 1351.62 516.45C1350.72 516.45 1349.89 516.61 1349.13 516.93C1348.37 517.25 1347.71 517.71 1347.15 518.31C1346.61 518.91 1346.19 519.63 1345.89 520.47C1345.59 521.31 1345.44 522.25 1345.44 523.29V526.77C1345.44 527.81 1345.59 528.75 1345.89 529.59C1346.19 530.43 1346.61 531.15 1347.15 531.75C1347.71 532.35 1348.37 532.81 1349.13 533.13C1349.89 533.45 1350.72 533.61 1351.62 533.61ZM1364.79 535.5V520.02H1367.19V522.87H1367.34C1367.62 522.13 1368.12 521.47 1368.84 520.89C1369.56 520.31 1370.55 520.02 1371.81 520.02H1372.74V522.42H1371.33C1370.03 522.42 1369.01 522.67 1368.27 523.17C1367.55 523.65 1367.19 524.26 1367.19 525V535.5H1364.79ZM1375.81 513.3H1378.21V522.54H1378.33C1378.73 521.56 1379.31 520.84 1380.07 520.38C1380.85 519.9 1381.78 519.66 1382.86 519.66C1383.82 519.66 1384.69 519.85 1385.47 520.23C1386.25 520.61 1386.91 521.15 1387.45 521.85C1388.01 522.55 1388.43 523.4 1388.71 524.4C1389.01 525.4 1389.16 526.52 1389.16 527.76C1389.16 529 1389.01 530.12 1388.71 531.12C1388.43 532.12 1388.01 532.97 1387.45 533.67C1386.91 534.37 1386.25 534.91 1385.47 535.29C1384.69 535.67 1383.82 535.86 1382.86 535.86C1380.76 535.86 1379.25 534.9 1378.33 532.98H1378.21V535.5H1375.81V513.3ZM1382.2 533.7C1383.56 533.7 1384.63 533.28 1385.41 532.44C1386.19 531.58 1386.58 530.46 1386.58 529.08V526.44C1386.58 525.06 1386.19 523.95 1385.41 523.11C1384.63 522.25 1383.56 521.82 1382.2 521.82C1381.66 521.82 1381.14 521.9 1380.64 522.06C1380.16 522.2 1379.74 522.4 1379.38 522.66C1379.02 522.92 1378.73 523.24 1378.51 523.62C1378.31 523.98 1378.21 524.37 1378.21 524.79V530.55C1378.21 531.05 1378.31 531.5 1378.51 531.9C1378.73 532.28 1379.02 532.61 1379.38 532.89C1379.74 533.15 1380.16 533.35 1380.64 533.49C1381.14 533.63 1381.66 533.7 1382.2 533.7Z" fill="white"/>
<path d="M537.67 715.86C535.97 715.86 534.52 715.54 533.32 714.9C532.12 714.24 531.1 713.34 530.26 712.2L532.12 710.64C532.86 711.62 533.68 712.37 534.58 712.89C535.48 713.39 536.54 713.64 537.76 713.64C539.26 713.64 540.4 713.28 541.18 712.56C541.98 711.84 542.38 710.88 542.38 709.68C542.38 708.68 542.08 707.91 541.48 707.37C540.88 706.83 539.89 706.4 538.51 706.08L536.8 705.69C534.88 705.25 533.41 704.59 532.39 703.71C531.39 702.81 530.89 701.55 530.89 699.93C530.89 699.01 531.06 698.19 531.4 697.47C531.74 696.75 532.21 696.15 532.81 695.67C533.43 695.19 534.16 694.83 535 694.59C535.86 694.33 536.8 694.2 537.82 694.2C539.4 694.2 540.75 694.49 541.87 695.07C543.01 695.65 543.97 696.5 544.75 697.62L542.86 699C542.28 698.2 541.58 697.57 540.76 697.11C539.94 696.65 538.92 696.42 537.7 696.42C536.36 696.42 535.3 696.71 534.52 697.29C533.76 697.85 533.38 698.7 533.38 699.84C533.38 700.84 533.7 701.6 534.34 702.12C535 702.62 535.99 703.02 537.31 703.32L539.02 703.71C541.08 704.17 542.57 704.87 543.49 705.81C544.41 706.75 544.87 708 544.87 709.56C544.87 710.52 544.7 711.39 544.36 712.17C544.04 712.95 543.57 713.61 542.95 714.15C542.33 714.69 541.57 715.11 540.67 715.41C539.79 715.71 538.79 715.86 537.67 715.86ZM552.402 715.5C551.562 715.5 550.922 715.27 550.482 714.81C550.062 714.33 549.852 713.71 549.852 712.95V702.12H547.302V700.02H548.742C549.262 700.02 549.612 699.92 549.792 699.72C549.992 699.5 550.092 699.13 550.092 698.61V695.73H552.252V700.02H555.642V702.12H552.252V713.4H555.402V715.5H552.402ZM565.232 715.86C564.192 715.86 563.242 715.67 562.382 715.29C561.522 714.91 560.782 714.37 560.162 713.67C559.562 712.95 559.092 712.1 558.752 711.12C558.412 710.12 558.242 709 558.242 707.76C558.242 706.54 558.412 705.43 558.752 704.43C559.092 703.43 559.562 702.58 560.162 701.88C560.782 701.16 561.522 700.61 562.382 700.23C563.242 699.85 564.192 699.66 565.232 699.66C566.272 699.66 567.212 699.85 568.052 700.23C568.912 700.61 569.652 701.16 570.272 701.88C570.892 702.58 571.372 703.43 571.712 704.43C572.052 705.43 572.222 706.54 572.222 707.76C572.222 709 572.052 710.12 571.712 711.12C571.372 712.1 570.892 712.95 570.272 713.67C569.652 714.37 568.912 714.91 568.052 715.29C567.212 715.67 566.272 715.86 565.232 715.86ZM565.232 713.73C566.532 713.73 567.592 713.33 568.412 712.53C569.232 711.73 569.642 710.51 569.642 708.87V706.65C569.642 705.01 569.232 703.79 568.412 702.99C567.592 702.19 566.532 701.79 565.232 701.79C563.932 701.79 562.872 702.19 562.052 702.99C561.232 703.79 560.822 705.01 560.822 706.65V708.87C560.822 710.51 561.232 711.73 562.052 712.53C562.872 713.33 563.932 713.73 565.232 713.73ZM581.929 715.86C580.849 715.86 579.879 715.67 579.019 715.29C578.159 714.91 577.429 714.37 576.829 713.67C576.249 712.97 575.799 712.12 575.479 711.12C575.179 710.12 575.029 709 575.029 707.76C575.029 706.52 575.179 705.4 575.479 704.4C575.799 703.4 576.249 702.55 576.829 701.85C577.429 701.15 578.159 700.61 579.019 700.23C579.879 699.85 580.849 699.66 581.929 699.66C583.469 699.66 584.699 700 585.619 700.68C586.559 701.34 587.259 702.21 587.719 703.29L585.709 704.31C585.429 703.51 584.969 702.89 584.329 702.45C583.689 702.01 582.889 701.79 581.929 701.79C581.209 701.79 580.579 701.91 580.039 702.15C579.499 702.37 579.049 702.69 578.689 703.11C578.329 703.51 578.059 704 577.879 704.58C577.699 705.14 577.609 705.76 577.609 706.44V709.08C577.609 710.44 577.969 711.56 578.689 712.44C579.429 713.3 580.509 713.73 581.929 713.73C583.869 713.73 585.269 712.83 586.129 711.03L587.869 712.2C587.369 713.32 586.619 714.21 585.619 714.87C584.639 715.53 583.409 715.86 581.929 715.86ZM591.257 693.3H593.657V707.37H593.777L596.147 704.73L600.527 700.02H603.437L597.707 706.14L604.007 715.5H601.097L595.967 707.61L593.657 709.98V715.5H591.257V693.3ZM621.457 696.78V715.5H618.937V696.78H612.277V694.56H628.117V696.78H621.457ZM629.988 715.5V700.02H632.388V702.87H632.538C632.818 702.13 633.318 701.47 634.038 700.89C634.758 700.31 635.748 700.02 637.008 700.02H637.938V702.42H636.528C635.228 702.42 634.208 702.67 633.468 703.17C632.748 703.65 632.388 704.26 632.388 705V715.5H629.988ZM646.677 715.86C645.617 715.86 644.657 715.67 643.797 715.29C642.957 714.91 642.227 714.37 641.607 713.67C641.007 712.95 640.537 712.1 640.197 711.12C639.877 710.12 639.717 709 639.717 707.76C639.717 706.54 639.877 705.43 640.197 704.43C640.537 703.43 641.007 702.58 641.607 701.88C642.227 701.16 642.957 700.61 643.797 700.23C644.657 699.85 645.617 699.66 646.677 699.66C647.717 699.66 648.647 699.85 649.467 700.23C650.287 700.61 650.987 701.14 651.567 701.82C652.147 702.48 652.587 703.27 652.887 704.19C653.207 705.11 653.367 706.12 653.367 707.22V708.36H642.237V709.08C642.237 709.74 642.337 710.36 642.537 710.94C642.757 711.5 643.057 711.99 643.437 712.41C643.837 712.83 644.317 713.16 644.877 713.4C645.457 713.64 646.107 713.76 646.827 713.76C647.807 713.76 648.657 713.53 649.377 713.07C650.117 712.61 650.687 711.95 651.087 711.09L652.797 712.32C652.297 713.38 651.517 714.24 650.457 714.9C649.397 715.54 648.137 715.86 646.677 715.86ZM646.677 701.67C646.017 701.67 645.417 701.79 644.877 702.03C644.337 702.25 643.867 702.57 643.467 702.99C643.087 703.41 642.787 703.91 642.567 704.49C642.347 705.05 642.237 705.67 642.237 706.35V706.56H650.787V706.23C650.787 704.85 650.407 703.75 649.647 702.93C648.907 702.09 647.917 701.67 646.677 701.67ZM657.321 715.5V700.02H659.721V702.54H659.841C660.221 701.66 660.751 700.96 661.431 700.44C662.131 699.92 663.061 699.66 664.221 699.66C665.821 699.66 667.081 700.18 668.001 701.22C668.941 702.24 669.411 703.69 669.411 705.57V715.5H667.011V705.99C667.011 703.21 665.841 701.82 663.501 701.82C663.021 701.82 662.551 701.88 662.091 702C661.651 702.12 661.251 702.3 660.891 702.54C660.531 702.78 660.241 703.09 660.021 703.47C659.821 703.83 659.721 704.26 659.721 704.76V715.5H657.321ZM684.272 712.98H684.152C683.212 714.9 681.702 715.86 679.622 715.86C678.662 715.86 677.792 715.67 677.012 715.29C676.232 714.91 675.562 714.37 675.002 713.67C674.462 712.97 674.042 712.12 673.742 711.12C673.462 710.12 673.322 709 673.322 707.76C673.322 706.52 673.462 705.4 673.742 704.4C674.042 703.4 674.462 702.55 675.002 701.85C675.562 701.15 676.232 700.61 677.012 700.23C677.792 699.85 678.662 699.66 679.622 699.66C680.702 699.66 681.622 699.9 682.382 700.38C683.162 700.84 683.752 701.56 684.152 702.54H684.272V693.3H686.672V715.5H684.272V712.98ZM680.282 713.7C680.822 713.7 681.332 713.63 681.812 713.49C682.312 713.35 682.742 713.15 683.102 712.89C683.462 712.61 683.742 712.28 683.942 711.9C684.162 711.5 684.272 711.05 684.272 710.55V704.79C684.272 704.37 684.162 703.98 683.942 703.62C683.742 703.24 683.462 702.92 683.102 702.66C682.742 702.4 682.312 702.2 681.812 702.06C681.332 701.9 680.822 701.82 680.282 701.82C678.922 701.82 677.852 702.25 677.072 703.11C676.292 703.95 675.902 705.06 675.902 706.44V709.08C675.902 710.46 676.292 711.58 677.072 712.44C677.852 713.28 678.922 713.7 680.282 713.7Z" fill="white"/>
<path d="M1189.5 334.5L1010.5 534H914L721 704.5" stroke="white" stroke-width="3" stroke-dasharray="2 2"/>
</svg>
